<?xml version="1.0" encoding="UTF-8" standalone="no"?>
<svg
   xmlns:dc="http://purl.org/dc/elements/1.1/"
   xmlns:cc="http://creativecommons.org/ns#"
   xmlns:rdf="http://www.w3.org/1999/02/22-rdf-syntax-ns#"
   xmlns:svg="http://www.w3.org/2000/svg"
   xmlns="http://www.w3.org/2000/svg"
   xmlns:sodipodi="http://sodipodi.sourceforge.net/DTD/sodipodi-0.dtd"
   xmlns:inkscape="http://www.inkscape.org/namespaces/inkscape"
   viewBox="0 0 907.08669 680.31495"
   height="18cm"
   width="24cm"
   xml:space="preserve"
   id="svg2"
   version="1.1"
   sodipodi:docname="readme-title.svg"
   inkscape:version="0.92.1 r15371"><sodipodi:namedview
     pagecolor="#ffffff"
     bordercolor="#666666"
     borderopacity="1"
     objecttolerance="10"
     gridtolerance="10"
     guidetolerance="10"
     inkscape:pageopacity="0"
     inkscape:pageshadow="2"
     inkscape:window-width="1784"
     inkscape:window-height="1026"
     id="namedview88"
     showgrid="true"
     inkscape:zoom="0.6590347"
     inkscape:cx="1.8769597"
     inkscape:cy="352.77721"
     inkscape:window-x="64"
     inkscape:window-y="0"
     inkscape:window-maximized="1"
     inkscape:current-layer="svg2"
     units="cm"
     showguides="true"
     inkscape:snap-object-midpoints="false"
     inkscape:snap-center="true"><inkscape:grid
       type="xygrid"
       id="grid75"
       units="mm"
       empspacing="8"
       dotted="true" /></sodipodi:namedview><metadata
     id="metadata8"><rdf:RDF><cc:Work
         rdf:about=""><dc:format>image/svg+xml</dc:format><dc:type
           rdf:resource="http://purl.org/dc/dcmitype/StillImage" /><dc:title /></cc:Work></rdf:RDF></metadata><defs
     id="defs6"><clipPath
       id="clipPath20"
       clipPathUnits="userSpaceOnUse"><path
         id="path18"
         d="M 0,0 H 808 V 541 H 0 Z"
         inkscape:connector-curvature="0" /></clipPath><clipPath
       id="clipPath28"
       clipPathUnits="userSpaceOnUse"><path
         id="path26"
         d="M 0,0 H 842 V 595 H 0 Z"
         inkscape:connector-curvature="0" /></clipPath><clipPath
       id="clipPath32"
       clipPathUnits="userSpaceOnUse"><path
         style="clip-rule:evenodd"
         id="path30"
         d="M 0,-0.2 H 841.8 V 595 H 0 Z"
         inkscape:connector-curvature="0" /></clipPath></defs><g
     id="g4516"
     transform="matrix(0.64016589,0,0,0.64016589,278.33071,29.663727)"><path
       style="fill:none;stroke:#000000;stroke-width:16;stroke-linecap:round;stroke-miterlimit:4;stroke-dasharray:none"
       inkscape:connector-curvature="0"
       id="path6"
       d="" /><path
       sodipodi:nodetypes="csssssssssssscsssssssssssssssscccccscssccscsssssssscsssccsccccccscccccccccccscscsscscscccccccsssscssccccsscccsssccscc"
       style="fill:none;stroke:#000000;stroke-width:16;stroke-linecap:round;stroke-miterlimit:4;stroke-dasharray:none"
       inkscape:connector-curvature="0"
       id="path8"
       d="m 90.439314,256.41998 1.10206,1.18793 c 0.734711,0.79195 1.275691,1.79102 1.622963,2.99724 0.347271,1.20621 0.755396,3.51992 1.224376,6.94116 0.468979,3.42124 0.703463,6.17975 0.703463,8.27553 v 8.24474 c 0,3.40068 -0.187047,7.10725 -0.561162,11.11968 -0.374094,4.01245 -0.642259,7.7665 -0.804505,11.2622 -0.162225,3.49567 -0.674774,7.44944 -1.537647,11.86129 -0.862884,4.41185 -1.338483,8.4677 -1.426809,12.16755 -0.08827,3.69987 0.04507,7.40199 0.400092,11.10637 0.355057,3.70436 0.478445,7.67731 0.370154,11.91884 -0.10827,4.24149 -0.16241,8.16366 -0.16241,11.76653 v 11.23965 11.29421 c 0,3.63916 -0.311219,7.4028 -0.933679,11.29093 -0.622438,3.88812 -1.087725,7.63828 -1.395851,11.25046 -0.308125,3.6121 -0.462193,7.03498 -0.462193,10.26861 0,3.23357 -0.09859,6.12932 -0.295741,8.68723 -0.197184,2.55791 -0.16966,5.51928 0.0825,8.88409 0.252191,3.36486 0.241806,6.33056 -0.03114,8.89709 -0.27297,2.56658 -0.647683,5.23319 -1.124128,7.99983 -0.47644,2.76671 -0.677658,4.97437 -0.603659,6.623 0.07398,1.64862 0.110999,3.28047 0.110999,4.89553 0,1.61505 0.155098,3.05159 0.465287,4.30961 0.310192,1.25802 0.465291,2.39864 0.465291,3.42186 v 3.57866 c 0,1.36252 0.225502,2.79775 0.676517,4.30568 0.451025,1.50793 0.606124,2.69956 0.465287,3.5749 -0.140816,0.87534 -0.21124,1.81787 -0.21124,2.82763 v 2.04884 1.25382 1.00514 1.00306 1.09156 0.8221 c 0,0.29861 0.21158,0.59184 0.634731,0.87968 0.423161,0.28789 0.716065,0.599 0.878733,0.93335 0.162659,0.33435 0.338816,0.50153 0.528472,0.50153 h 0.687995 0.813734 1.241948 c 0.55447,0 1.648826,-0.0963 3.283111,-0.28898 1.634296,-0.19268 3.413597,-0.54829 5.337957,-1.06685 1.92435,-0.51859 3.99318,-0.92379 6.20648,-1.21561 2.21328,-0.29182 4.62753,-0.43773 7.24275,-0.43773 2.61521,0 5.78151,-0.16719 9.49884,-0.50154 3.71734,-0.33435 7.64958,-0.7138 11.7967,-1.13837 4.14711,-0.42458 8.09992,-0.72855 11.8584,-0.91188 3.75847,-0.18335 7.30838,-0.52794 10.64971,-1.03375 3.34135,-0.50581 7.09657,-1.01464 11.26568,-1.52649 4.16913,-0.51189 8.19356,-1.02632 12.07326,-1.54327 3.87973,-0.517 7.74542,-1.03499 11.59708,-1.55394 3.85164,-0.51896 7.44453,-1.0342 10.77866,-1.54571 3.33412,-0.51149 6.49485,-1.02139 9.4822,-1.52967 2.98733,-0.50824 6.1468,-1.01865 9.47842,-1.53119 3.33162,-0.51251 6.33691,-1.02698 9.01587,-1.54337 2.67894,-0.51646 5.37885,-1.03452 8.09975,-1.55422 2.72087,-0.51967 5.08827,-0.83937 7.1022,-0.9591 2.01392,-0.11967 4.12055,-0.34668 6.31994,-0.68103 5.10929,-0.7989 45.23474,-2.04144 60.5114,-1.91514 48.9355,4.30204 23.03056,2.30707 56.49055,3.41973 0.95858,0 1.75738,0.1324 2.39641,0.3972 0.63902,0.26484 1.43425,0.43202 2.3857,0.50154 0.95145,0.0695 1.75034,0.10428 2.39665,0.10428 h 1.74793 1.4901 1.42794 1.89681 2.63274 2.87781 2.5621 1.85016 1.42996 1.42974 1.42756 1.43523 c 0.4807,0 0.95752,-0.16718 1.43043,-0.50153 0.47288,-0.33434 0.94803,-0.50152 1.42545,-0.50152 0.47736,0 0.95499,-0.16718 1.4329,-0.50153 0.47787,-0.33435 0.80411,-0.50153 0.97869,-0.50153 0.17457,0 0.39634,-0.22854 0.66529,-0.68562 0.26896,-0.45709 0.4325,-0.88413 0.49062,-1.28113 0.0582,-0.397 0.32554,-0.85244 0.80229,-1.36632 0.47676,-0.51389 0.85605,-1.028 1.13785,-1.5423 0.28188,-0.51433 0.42281,-1.02796 0.42281,-1.54087 v -2.23745 -3.15783 -5.02853 -7.04223 -7.50263 -9.84351 -15.62303 -17.23867 c 0,-5.10664 0.30967,-10.24602 0.929,-15.41816 0.61934,-5.17215 1.39482,-10.77243 2.32642,-16.80088 0.93163,-6.02838 1.55887,-11.28409 1.88172,-15.76712 0.32286,-4.48304 0.72154,-8.32694 1.19602,-11.53168 0.47446,-3.20476 0.94971,-6.78784 1.42575,-10.74923 0.47603,-3.96141 1.10921,-7.84506 1.89951,-11.65095 0.79034,-3.8059 1.60933,-7.36946 2.45699,-10.69066 0.84769,-3.3212 1.59231,-6.3991 2.23384,-9.23371 0.6416,-2.83461 1.63374,-5.74483 2.97644,-8.73064 2.36545,-5.33849 4.11253,-10.62846 5.45682,-16.06722 0.53412,-2.17623 1.03799,-4.45247 1.51157,-6.82876 0.47357,-2.37629 1.16466,-4.82125 2.07324,-7.33486 0.90861,-2.51363 1.54278,-4.58606 1.90247,-6.2173 0.35975,-1.63123 0.77852,-3.21929 1.25628,-4.76415 0.47772,-1.54488 0.63921,-2.91075 0.48444,-4.09762 -0.15477,-1.18687 0.008,-2.38258 0.48893,-3.58714 0.48073,-1.20456 0.95896,-2.39486 1.43467,-3.57091 0.47571,-1.17606 0.70062,-2.11178 0.67476,-2.80718 -0.0259,-0.69539 0.14298,-1.56095 0.50657,-2.59663 0.36356,-1.03569 0.51866,-1.78205 0.46528,-2.23907 -0.0534,-0.45703 -0.0801,-0.94149 -0.0801,-1.45341 v -1.39873 -1.00486" /><path
       sodipodi:nodetypes="cssssssssssssssssssssssssssssssssssscscsccscssscsscsscscsssssssssssssssssssssssscsssssccscccc"
       style="fill:none;stroke:#000000;stroke-width:16;stroke-linecap:round;stroke-miterlimit:4;stroke-dasharray:none"
       inkscape:connector-curvature="0"
       id="path10"
       d="m 12.271174,307.57597 0.944773,-1.01837 c 0.629843,-0.6789 1.181677,-1.4409 1.655499,-2.28598 0.47383,-0.84509 1.115227,-1.70362 1.924193,-2.57561 0.808972,-0.87199 1.692266,-2.26319 2.649881,-4.17361 0.957625,-1.91043 1.913528,-3.83174 2.86772,-5.76392 0.954191,-1.93218 2.271984,-3.91658 3.95339,-5.95318 1.681407,-2.0366 3.840726,-4.67828 6.477943,-7.92504 2.637225,-3.24676 5.236558,-6.80137 7.797997,-10.66386 2.56144,-3.86248 5.640613,-8.23768 9.23753,-13.1256 3.596925,-4.88791 7.054814,-9.33837 10.373676,-13.35137 3.31886,-4.01301 6.434484,-8.07426 9.346852,-12.18377 2.912346,-4.10949 6.24926,-8.55181 10.010724,-13.32694 3.761471,-4.77514 7.264389,-9.16375 10.508751,-13.16583 3.244367,-4.00207 6.245918,-7.91595 9.004672,-11.74167 2.758745,-3.82572 5.748535,-7.65386 8.969375,-11.48442 3.22082,-3.83057 6.22125,-7.74358 9.0013,-11.73905 2.78004,-3.99543 5.60528,-7.44798 8.47577,-10.35762 2.87047,-2.90963 5.73778,-5.65078 8.60189,-8.22345 2.86411,-2.57268 5.47644,-4.87396 7.837,-6.90387 2.36055,-2.0299 4.75281,-4.28826 7.17678,-6.77506 2.42397,-2.48675 5.14816,-5.43038 8.17258,-8.83086 3.02443,-3.40048 6.04085,-6.81904 9.04929,-10.2557 3.00843,-3.43665 5.68137,-5.94949 8.01882,-7.53855 2.33745,-1.58902 4.89798,-3.40787 7.68158,-5.45655 2.78363,-2.04866 5.18504,-4.266495 7.20426,-6.653494 2.01926,-2.387019 3.98282,-4.376856 5.89067,-5.969502 1.90783,-1.592646 3.36274,-2.838856 4.36473,-3.738625 1.00196,-0.899753 1.99448,-1.620702 2.9775,-2.162825 0.98305,-0.542133 1.95174,-1.070364 2.90606,-1.584682 0.95433,-0.514329 1.90439,-1.19353 2.85016,-2.037603 0.94575,-0.844074 2.06112,-1.70199 3.3461,-2.573738 1.28497,-0.871749 3.05686,-2.265448 5.31564,-4.181109 2.25879,-1.915672 4.14963,-3.631484 5.67252,-5.147446 1.52288,-1.515962 3.01209,-2.891226 4.46765,-4.1258 1.45553,-1.234575 2.89836,-2.622626 4.32848,-4.164157 l 3.91104,-4.215654 3.79284,-4.088257 c 1.35133,-1.456601 2.46001,-2.484476 3.32607,-3.083623 0.86603,-0.599147 1.77349,-1.410119 2.72236,-2.432907 l 2.86105,-3.083904 2.87513,-3.099089 2.87126,-3.094908 c 0.95589,-1.030341 1.67431,-2.059569 2.15527,-3.087685 0.48094,-1.028124 1.12178,-2.053221 1.92249,-3.075297 0.80069,-1.022076 1.52161,-1.878658 2.16276,-2.569756 l 2.37838,-2.563616 c 0.94442,-1.017994 1.6379,-1.932664 2.08045,-2.744028 0.44252,-0.811364 0.90205,-1.473864 1.37859,-1.98751 l 1.43264,-1.544238 c 0.47857,-0.515854 0.83835,-0.903656 1.07934,-1.163418 0.24098,-0.259753 0.57423,-0.451788 0.99975,-0.576097 0.42553,-0.124309 0.65816,-0.443602 0.69793,-0.957861 0.0397,-0.514257 0.23106,-0.702873 0.57389,-0.565825 0.34282,0.137048 0.83238,0.566067 1.46862,1.287055 0.63625,0.720988 1.19323,1.338932 1.67094,1.853843 0.47768,0.514899 1.14416,1.028204 1.99943,1.539915 0.85526,0.511691 1.76341,1.323426 2.72448,2.435185 0.96107,1.11176 1.92022,2.183548 2.87747,3.215364 0.95728,1.031826 2.04387,2.370208 3.25975,4.015144 1.21585,1.644945 2.32274,3.23715 3.32062,4.776624 0.99788,1.539474 1.9722,3.091217 2.92295,4.655215 0.95076,1.563999 2.12651,3.100936 3.52728,4.610799 1.40074,1.509864 2.65732,3.362624 3.76975,5.558268 1.11241,2.195655 2.31233,4.674684 3.59975,7.437097 1.28741,2.762414 2.56035,5.324616 3.81884,7.686629 1.25846,2.362012 2.51881,4.475657 3.78103,6.340945 1.26219,1.865287 2.73267,3.96157 4.41147,6.288855 1.6788,2.327287 3.36098,4.373005 5.04653,6.137133 1.68555,1.764141 3.43103,3.619232 5.23645,5.565286 1.80545,1.946084 3.39097,3.949713 4.75653,6.010888 1.36558,2.061194 2.75787,3.89631 4.1769,5.505329 1.41904,1.60902 3.10808,3.91589 5.06714,6.9206 1.95905,3.0047 3.70564,5.84842 5.23978,8.53117 1.53414,2.68271 3.31272,4.98918 5.33573,6.91941 2.02302,1.9302 3.75872,3.6759 5.2071,5.23711 l 4.33638,4.67414 c 1.44255,1.55492 3.09984,3.09054 4.97184,4.60683 1.87202,1.5163 3.61921,3.06524 5.24157,4.64678 1.6224,1.5816 3.29357,3.29936 5.01352,5.15328 1.71994,1.85392 3.46498,3.54759 5.23512,5.08102 1.77016,1.53341 3.77868,3.36401 6.02554,5.49183 2.24691,2.12781 4.33209,4.02248 6.25553,5.68399 1.92348,1.66152 3.87749,3.13669 5.86204,4.42552 1.98453,1.28883 3.67413,2.43436 5.06879,3.43655 1.39467,1.00221 2.8108,2.01982 4.24842,3.05287 1.43757,1.03303 2.86965,2.06212 4.29623,3.08725 1.42659,1.02514 3.01587,2.22291 4.76783,3.59328 1.7519,1.37037 3.57343,2.5735 5.46461,3.60939 1.89117,1.03589 3.47738,2.06429 4.75862,3.08518 1.28121,1.02091 2.63077,2.04081 4.04869,3.05973 1.41795,1.01891 2.85063,1.88124 4.29804,2.58701 32.37739,24.13678 44.18914,49.0872 65.48108,78.58319" /><path
       sodipodi:nodetypes="cscscssssccsccsssc"
       style="fill:none;stroke:#000000;stroke-width:16;stroke-linecap:round;stroke-miterlimit:4;stroke-dasharray:none"
       inkscape:connector-curvature="0"
       id="path12"
       d="m 241.50958,267.71714 -0.46529,0.90697 c -0.31019,0.60464 -0.67498,1.16504 -1.09437,1.68115 -0.41938,0.51612 -1.15858,1.34494 -2.2176,2.48646 l -2.34831,2.5312 c -0.50647,0.54594 -0.99865,1.40073 -1.47656,2.56437 -0.47791,1.16363 -1.18573,2.26095 -2.12351,3.29195 -0.93778,1.03099 -1.72483,2.05901 -2.36116,3.08402 -0.63632,1.02502 -1.19486,2.15003 -1.67561,3.37501 -0.48075,1.22498 -0.96055,2.42654 -1.43943,3.60467 -0.4789,1.17814 -0.8567,2.34072 -1.1334,3.48772 -0.27672,1.14701 -0.59824,2.17449 -0.96456,3.08244 -0.36632,0.90793 -0.67651,1.87422 -0.93057,2.89885 -2.4528,7.14661 -6.67345,31.33906 2.46145,31.9876 1.28251,0.0816 6.2819,2.08125 7.98447,1.79882 1.70256,-0.28246 3.94313,-1.37877 6.72171,-3.28894 2.7786,-1.9102 4.58094,-3.10638 5.40703,-3.58856 l 1.23916,-0.72327" /><path
       sodipodi:nodetypes="cccccccssccscscccsscccccsscsssssc"
       style="fill:none;stroke:#000000;stroke-width:16;stroke-linecap:round;stroke-miterlimit:4;stroke-dasharray:none"
       inkscape:connector-curvature="0"
       id="path14"
       d="m 167.67689,368.76254 0.9526,1.02683 1.71137,1.84465 1.47368,1.58842 c 0.47657,0.51372 1.10566,1.31459 1.88728,2.40257 0.7816,1.08803 1.40986,1.93242 1.8848,2.53318 13.84325,13.08857 36.88629,27.10639 50.88027,24.20681 1.02868,-0.33435 2.24887,-0.7459 3.66058,-1.23466 1.41168,-0.48876 3.13938,-0.98942 5.18312,-1.50198 2.04374,-0.51257 4.18568,-1.02866 6.42584,-1.54827 2.24015,-0.51966 4.31376,-1.218 6.22081,-2.09504 1.90706,-0.87696 3.65458,-1.55684 5.24258,-2.03959 1.58797,-0.48276 3.15501,-1.17259 4.70111,-2.06947 1.5461,-0.89695 3.02605,-1.74165 4.43985,-2.5341 1.41379,-0.79245 2.65026,-1.44638 3.70941,-1.96178 1.05914,-0.51537 2.06265,-0.90516 3.01055,-1.16937 0.9479,-0.26414 2.1021,-0.61139 3.46261,-1.04177 1.36051,-0.43041 2.75147,-1.06813 4.17288,-1.9132 1.42142,-0.84506 2.84872,-1.75156 4.28191,-2.71948 1.43317,-0.96792 3.16165,-2.13474 5.18543,-3.50047 11.12327,-7.33076 14.60679,-13.39826 21.53054,-23.11614 0.74748,-1.02913 1.35665,-1.85295 1.82752,-2.47144 0.47086,-0.61841 0.94458,-1.18446 1.42117,-1.69815 l 1.42346,-1.53433 c 0.47239,-0.50921 0.947,-1.15167 1.42384,-1.92739 0.47684,-0.77573 0.95333,-1.45653 1.42948,-2.04239 0.47616,-0.58585 0.95303,-1.13617 1.43066,-1.65096 l 1.43169,-1.54323 c 0.47685,-0.51399 0.65403,-0.89815 0.53154,-1.15243 -0.12249,-0.2543 -0.0286,-0.52274 0.28183,-0.80531 0.31037,-0.28257 0.64448,-0.42377 1.00231,-0.42357 0.35784,2e-4 0.67821,3.1e-4 0.9611,3.1e-4 h 0.42434" /><path
       style="fill:none;stroke:#000000;stroke-width:16;stroke-linecap:round;stroke-miterlimit:4;stroke-dasharray:none"
       inkscape:connector-curvature="0"
       id="path16"
       d="m 196.52466,170.15695 q 0,0 -1.39106,0 -1.39108,0 -2.10013,-0.50153 -0.70905,-0.50153 -1.9222,-0.50153 -1.21313,0 -2.63229,0.29362 -1.41912,0.29365 -2.85988,0.50153 -1.44078,0.20791 -3.79998,1.04493 -2.35924,0.83704 -4.36298,2.22157 -2.00376,1.38456 -2.51519,2.04357 -0.51145,0.65901 -1.8203,1.42868 -1.30881,0.76968 -2.73996,1.54102 -1.43117,0.77131 -2.85244,1.53734 -1.4213,0.76601 -3.25936,1.97706 -1.83805,1.21106 -3.95818,2.73457 -2.12013,1.52351 -4.27563,2.57092 -2.1555,1.04741 -3.61749,2.59431 -1.46201,1.54688 -3.37112,2.58966 -1.90911,1.04274 -3.78606,3.07791 -1.87697,2.03517 -3.83899,4.15003 -1.962,2.11484 -3.33089,3.90751 -1.36889,1.79266 -2.80203,3.5218 -1.43315,1.72916 -2.0707,3.63519 -0.63756,1.906 -1.35616,3.59806 -0.71862,1.69204 -1.43221,3.12672 -0.71359,1.43468 -1.42908,3.0808 -0.71549,1.64614 -0.56151,3.61243 0.15398,1.96629 -0.50042,4.2918 -0.65438,2.32551 -0.46528,4.14411 0.18911,1.81859 0.18911,3.37057 0,1.55197 0.93242,2.08563 0.9324,0.53369 1.65023,2.08313 0.71782,1.54947 1.43323,2.54792 0.71537,0.99843 2.18197,2.57928 1.46658,1.58084 3.42968,2.54152 1.9631,0.9607 3.67511,1.3861 1.71203,0.4254 3.87546,1.0581 2.16344,0.63269 3.93981,1.00306 1.77638,0.37035 3.18425,0.37035 1.40786,0 2.84602,0 1.43816,0 2.8837,0.70861 1.44554,0.70861 3.32653,0.50153 1.88096,-0.20708 3.98779,-0.20708 2.10682,0 3.77875,0 1.67192,0 3.07252,0 1.40061,0 2.85072,0 1.45011,0 3.63128,-0.80317 2.18116,-0.80316 4.32707,-1.5742 2.14591,-0.77103 4.59478,-2.21084 2.44885,-1.43981 5.3796,-3.80907 2.93069,-2.36925 6.5838,-5.04238 3.65309,-2.67313 6.01258,-5.09901 2.35949,-2.42588 3.62725,-4.29389 1.26771,-1.86799 2.74049,-3.45546 1.47273,-1.58745 2.00086,-3.58667 0.52813,-1.99923 1.24495,-3.58187 0.71685,-1.58265 0.96522,-2.62851 0.24837,-1.04585 0.9463,-3.29386 0.69793,-2.24799 1.42829,-4.07326 0.73036,-1.82526 1.16322,-3.86657 0.43285,-2.04128 0.43285,-3.58267 0,-1.54138 0,-3.41204 0,-1.87067 0,-3.56802 0,-1.69734 0,-3.25566 0,-1.55835 0,-3.74058 0,-2.18222 -0.85029,-4.08776 -0.85028,-1.90551 -1.56662,-3.44977 -0.71633,-1.54426 -1.43203,-2.63317 -0.71571,-1.08893 -1.42966,-1.8585 -0.71392,-0.76952 -0.96545,-2.03377 -0.25154,-1.26428 -0.26075,-2.78873 -0.009,-1.52443 0.92137,-2.52748 l 0.93057,-1.00307" /><path
       style="fill:none;stroke:#000000;stroke-width:16;stroke-linecap:round;stroke-miterlimit:4;stroke-dasharray:none"
       inkscape:connector-curvature="0"
       id="path18-6"
       d="m 362.16666,178.18142 q 0,0 -0.98453,-0.53062 -0.98456,-0.53059 -1.28873,-1.00306 -0.30418,-0.47244 -1.00709,-0.47244 -0.70287,0 -1.67462,0 -0.97175,0 -1.68824,0 -0.7165,0 -1.42893,0 -0.71237,0 -2.35142,0 -1.63908,0 -3.05235,-0.75229 -1.41326,-0.75229 -3.31535,-0.50153 -1.90206,0.25076 -5.03846,-0.53453 -3.13641,-0.78526 -6.75664,-1.56567 -3.62022,-0.78049 -6.11673,-0.71934 -2.49651,0.0611 -5.17886,0.65544 -2.68239,0.59431 -4.40886,0.50153 -1.72652,-0.0928 -3.15855,-0.0928 -1.43206,0 -3.79194,0.50153 -2.3599,0.50153 -4.38305,0.50153 -2.02312,0 -4.63437,0.50153 -2.61126,0.50152 -5.4272,1.20524 -2.81593,0.70371 -6.12231,2.93862 -3.30637,2.23488 -6.15983,3.77278 -2.85346,1.53784 -4.32745,2.58303 -1.47399,1.04517 -2.86089,2.54492 -1.38689,1.49975 -2.8621,2.58834 -1.47523,1.08859 -3.39378,3.1566 -1.91851,2.06801 -3.90023,4.20404 -1.9817,2.13603 -4.12372,4.80542 -2.142,2.66942 -3.70076,5.11919 -1.55875,2.44979 -2.15041,4.24271 -0.59167,1.79291 -1.30667,4.10499 -0.71498,2.31206 -0.56842,4.19273 0.14659,1.88068 0.14659,3.43103 0,1.55036 0,2.6273 0,1.07695 0,1.84603 0,0.76906 0.46614,2.04132 0.46616,1.27225 1.18642,2.82496 0.72025,1.5527 1.43461,3.09273 0.71438,1.54004 1.4308,4.21275 0.7164,2.67269 1.43351,5.17976 0.7171,2.50707 2.23159,4.8308 1.5145,2.32375 2.90994,3.97305 1.39544,1.64933 3.65133,4.08093 2.25588,2.4316 3.79481,4.09044 1.53897,1.65883 3.82136,3.20264 2.28237,1.5438 4.43856,3.09322 2.15622,1.54943 3.40678,2.1302 1.25059,0.58075 3.34539,1.34985 2.09478,0.76909 4.2615,1.05238 2.16673,0.28326 4.31607,0.0188 2.14941,-0.26443 4.81319,-1.04153 2.66378,-0.77708 5.03185,-2.34259 2.36808,-1.5655 6.27109,-3.66899 3.90299,-2.10349 6.63732,-4.41235 2.73432,-2.30884 5.03454,-4.01776 2.30019,-1.70887 3.9694,-2.74115 1.66919,-1.03231 3.21664,-2.56526 1.54746,-1.53297 2.98405,-3.08147 1.43657,-1.54846 2.87429,-3.09817 1.43773,-1.54971 1.99013,-2.6467 0.55242,-1.09696 1.93329,-2.58538 1.38087,-1.48843 2.83749,-3.55533 1.45661,-2.06692 2.16326,-4.33791 0.70667,-2.271 1.89386,-4.60536 1.18715,-2.33435 1.89794,-3.04887 0.7108,-0.71452 1.44034,-3.22664 0.72951,-2.51211 1.75374,-4.73609 1.02421,-2.22397 1.88629,-4.52139 0.86207,-2.29741 1.57853,-4.11269 0.71649,-1.8153 0.83703,-2.85074 0.12054,-1.03544 0.12054,-2.21617 0,-1.18072 0,-2.71635 0,-1.53564 0,-2.58325 0,-1.04763 0,-2.57196 0,-1.52433 0,-2.59523 0,-1.07089 -0.69373,-2.58302 -0.69376,-1.51211 -1.87705,-3.55291 -1.18327,-2.04079 -3.07548,-4.07184 -1.89219,-2.03102 -3.33357,-3.58471 -1.44141,-1.55369 -2.11207,-2.2766 -0.67064,-0.72287 -1.38458,-1.49241 -0.71388,-0.76949 -1.098,-1.0422 -0.38412,-0.27271 -0.94442,-0.41405 l -0.5603,-0.14132" /><path
       style="fill:none;stroke:#000000;stroke-width:16;stroke-linecap:round;stroke-miterlimit:4;stroke-dasharray:none"
       inkscape:connector-curvature="0"
       id="path20"
       d="m 215.61422,210.2793 q 0,0 1.45146,0 1.4515,0 2.9444,0 1.49286,0 2.90246,-0.59123 1.40965,-0.59121 2.83869,-1.00306 1.42904,-0.41183 2.86328,-0.41183 1.43423,0 2.8623,0 1.42807,0 2.86109,0 1.43304,0 4.60225,0.93685 3.16919,0.93683 7.78111,1.6754 l 4.61191,0.73855" /><path
       style="fill:none;stroke:#000000;stroke-width:16;stroke-linecap:round;stroke-miterlimit:4;stroke-dasharray:none"
       inkscape:connector-curvature="0"
       id="path22"
       d="m 360.30552,198.24259 q 0,0 0.98232,-1.05883 0.98231,-1.05882 2.30365,-1.99384 1.32135,-0.93501 2.98154,-2.71229 1.66023,-1.77726 3.80959,-4.09402 2.14933,-2.31675 4.48335,-5.1222 2.33401,-2.80542 4.32955,-5.74407 1.99556,-2.9386 3.35787,-5.67987 1.36229,-2.74119 2.79167,-4.43948 1.4294,-1.69833 2.87151,-3.63973 1.44213,-1.9414 2.25678,-3.58304 0.81466,-1.64163 1.53131,-3.18656 0.71663,-1.54495 1.43187,-3.08691 0.71526,-1.54193 1.86347,-3.55596 1.14814,-2.01406 2.58059,-3.59841 1.43241,-1.58433 4.62632,-4.02403 3.19398,-2.43969 3.29536,-2.54893 l 0.10137,-0.10924" /><path
       sodipodi:nodetypes="cssssssssssssc"
       style="fill:none;stroke:#000000;stroke-width:16;stroke-linecap:round;stroke-miterlimit:4;stroke-dasharray:none"
       inkscape:connector-curvature="0"
       id="path24"
       d="m 157.44058,186.20588 1.29968,0.70048 c 0.86645,0.46698 1.17664,0.3747 0.93058,-0.27682 -0.24608,-0.65151 -0.36911,-1.23337 -0.36911,-1.74555 0,-0.51219 -0.33872,-1.28655 -1.01616,-2.3231 -0.67745,-1.03654 -1.49492,-2.07084 -2.45239,-3.10288 -0.95746,-1.03206 -2.11936,-2.45164 -3.48568,-4.25876 -1.36633,-1.80711 -3.19801,-3.94863 -5.49502,-6.42456 -2.29702,-2.47595 -4.79253,-5.16584 -7.48655,-8.06972 l -8.28943,-8.9351 c -2.83228,-3.0529 -5.25078,-5.82696 -7.25546,-8.32216 -2.0047,-2.49521 -3.74065,-4.76141 -5.20784,-6.79863 -1.4672,-2.03721 -2.34207,-3.77794 -2.62461,-5.22219 -0.28253,-1.44425 -0.19623,-3.43095 0.25888,-5.9601" /><ellipse
       transform="matrix(0.93057309,0,0,1.0030585,-65.684441,-192.07599)"
       id="path3032"
       style="color:#000000;display:inline;overflow:visible;visibility:visible;fill:#000000;stroke:#000000;stroke-width:16.560812;stroke-linecap:butt;stroke-linejoin:miter;stroke-miterlimit:4;stroke-dasharray:none;stroke-dashoffset:0;stroke-opacity:1;marker:none;enable-background:accumulate"
       cx="397.57565"
       cy="412.66437"
       rx="8.165061"
       ry="8.5837822" /><ellipse
       transform="matrix(0.93057309,0,0,1.0030585,-195.64826,-197.62512)"
       id="path3032-3"
       style="color:#000000;display:inline;overflow:visible;visibility:visible;fill:#000000;stroke:#000000;stroke-width:16.560812;stroke-linecap:butt;stroke-linejoin:miter;stroke-miterlimit:4;stroke-dasharray:none;stroke-dashoffset:0;stroke-opacity:1;marker:none;enable-background:accumulate"
       cx="397.57565"
       cy="412.66437"
       rx="8.165061"
       ry="8.5837822" /></g><text
     xml:space="preserve"
     style="color:#000000;font-style:oblique;font-variant:normal;font-weight:bold;font-stretch:normal;font-size:96px;line-height:100%;font-family:'Bitstream Vera Sans';-inkscape-font-specification:'Bitstream Vera Sans, Bold Oblique';font-variant-ligatures:normal;font-variant-caps:normal;font-variant-numeric:normal;font-feature-settings:normal;text-indent:0;text-align:end;text-decoration:none;text-decoration-line:none;letter-spacing:normal;word-spacing:normal;text-transform:none;writing-mode:lr-tb;direction:ltr;baseline-shift:baseline;text-anchor:end;display:inline;overflow:visible;visibility:visible;opacity:1;fill:#000000;fill-opacity:1;fill-rule:nonzero;stroke:none;stroke-width:4;stroke-linecap:butt;stroke-linejoin:miter;stroke-miterlimit:10;stroke-dasharray:8, 8;stroke-dashoffset:0;stroke-opacity:1;marker:none;marker-start:none;marker-mid:none;marker-end:none;enable-background:accumulate"
     x="453.18298"
     y="463.6756"
     id="text4534"><tspan
       sodipodi:role="line"
       id="tspan4532"
       x="453.18298"
       y="463.6756"
       style="text-align:center;text-anchor:middle">The Home2Ls</tspan></text>
<text
     xml:space="preserve"
     style="color:#000000;font-style:oblique;font-variant:normal;font-weight:bold;font-stretch:normal;font-size:96px;line-height:100%;font-family:'Bitstream Vera Sans';-inkscape-font-specification:'Bitstream Vera Sans, Bold Oblique';font-variant-ligatures:normal;font-variant-caps:normal;font-variant-numeric:normal;font-feature-settings:normal;text-indent:0;text-align:center;text-decoration:none;text-decoration-line:none;letter-spacing:normal;word-spacing:normal;text-transform:none;writing-mode:lr-tb;direction:ltr;baseline-shift:baseline;text-anchor:middle;display:inline;overflow:visible;visibility:visible;opacity:1;fill:#000000;fill-opacity:1;fill-rule:nonzero;stroke:none;stroke-width:4;stroke-linecap:butt;stroke-linejoin:miter;stroke-miterlimit:10;stroke-dasharray:8, 8;stroke-dashoffset:0;stroke-opacity:1;marker:none;marker-start:none;marker-mid:none;marker-end:none;enable-background:accumulate"
     x="455.40955"
     y="530.52484"
     id="text4538"><tspan
       sodipodi:role="line"
       id="tspan4536"
       x="455.40955"
       y="530.52484"
       style="font-size:32px">Clever Tools for a Private Smart Home</tspan></text>
<text
     xml:space="preserve"
     style="color:#000000;font-style:oblique;font-variant:normal;font-weight:bold;font-stretch:normal;font-size:96px;line-height:100%;font-family:'Bitstream Vera Sans';-inkscape-font-specification:'Bitstream Vera Sans, Bold Oblique';font-variant-ligatures:normal;font-variant-caps:normal;font-variant-numeric:normal;font-feature-settings:normal;text-indent:0;text-align:center;text-decoration:none;text-decoration-line:none;letter-spacing:normal;word-spacing:normal;text-transform:none;writing-mode:lr-tb;direction:ltr;baseline-shift:baseline;text-anchor:middle;display:inline;overflow:visible;visibility:visible;opacity:1;fill:#000000;fill-opacity:1;fill-rule:nonzero;stroke:none;stroke-width:4;stroke-linecap:butt;stroke-linejoin:miter;stroke-miterlimit:10;stroke-dasharray:8, 8;stroke-dashoffset:0;stroke-opacity:1;marker:none;marker-start:none;marker-mid:none;marker-end:none;enable-background:accumulate"
     x="452.3783"
     y="608.18512"
     id="text4538-6"><tspan
       sodipodi:role="line"
       id="tspan4536-9"
       x="452.3783"
       y="608.18512"
       style="font-style:oblique;font-variant:normal;font-weight:normal;font-stretch:normal;font-size:32px;font-family:'Bitstream Vera Sans';-inkscape-font-specification:'Bitstream Vera Sans Oblique'">by Gundolf Kiefer</tspan></text>
</svg>